<svg xmlns="http://www.w3.org/2000/svg" version="1.1" xmlns:xlink="http://www.w3.org/1999/xlink" width="1500" height="1500" viewBox="0 0 1500 1500"><rect width="1500" height="1500" x="0" y="0" id="background" stroke="transparent" fill="#000000"></rect><svg xml:space="preserve" width="1000" height="1000" data-version="2" data-id="lg_qC5FDvcOVqX1jJ5vap" viewBox="0 0 479 96" x="250" y="250"><rect width="100%" height="100%" fill="transparent"></rect><path fill="#818181" d="M125.204 87.904v-68.9h15.55v68.9Zm-21.88-56.33v-13.56h59.31v13.56Z"></path><rect width="59.31" height="69.89" x="-29.66" y="-34.95" fill="none" rx="0" ry="0" transform="translate(133.48 53.46)"></rect><path fill="#818181" d="M181.634 88.994q-7.42 0-13.41-3.32-5.99-3.31-9.46-9.05-3.46-5.75-3.46-12.87 0-7.13 3.46-12.77 3.47-5.65 9.41-8.96 5.94-3.32 13.46-3.32 7.53 0 13.47 3.27 5.94 3.26 9.4 8.96 3.47 5.69 3.47 12.82 0 7.12-3.47 12.87-3.46 5.74-9.4 9.05-5.94 3.32-13.47 3.32m0-13.76q3.27 0 5.75-1.44 2.47-1.43 3.81-4.05 1.33-2.63 1.33-5.99 0-3.37-1.38-5.89-1.39-2.53-3.81-3.96-2.43-1.44-5.7-1.44-3.16 0-5.64 1.44-2.47 1.43-3.86 4.01-1.39 2.57-1.39 5.94 0 3.26 1.39 5.89 1.39 2.62 3.86 4.05 2.48 1.44 5.64 1.44"></path><rect width="52.67" height="50.29" x="-26.34" y="-25.14" fill="none" rx="0" ry="0" transform="translate(182.14 64.35)"></rect><path fill="#818181" d="M215.494 87.904v-48.11h15.15v48.11Zm30.79 0v-28.11q0-3.67-2.23-5.7-2.22-2.03-5.49-2.03-2.28 0-4.06.94-1.78.95-2.82 2.63-1.04 1.68-1.04 4.16l-5.84-2.58q0-5.74 2.47-9.85 2.48-4.11 6.73-6.33 4.26-2.23 9.61-2.23 5.05 0 9.06 2.28 4.01 2.27 6.38 6.33 2.38 4.06 2.38 9.7v30.79Zm30.79 0v-28.11q0-3.67-2.23-5.7-2.23-2.03-5.49-2.03-2.28 0-4.06.94-1.78.95-2.82 2.63-1.04 1.68-1.04 4.16l-8.71-1.19q.19-6.14 2.92-10.55 2.72-4.4 7.22-6.83 4.51-2.42 10.15-2.42 5.54 0 9.85 2.32 4.31 2.33 6.83 6.64 2.53 4.3 2.53 10.34v29.8Z"></path><rect width="76.73" height="49.1" x="-38.37" y="-24.55" fill="none" rx="0" ry="0" transform="translate(254.36 63.85)"></rect><path fill="#818181" d="M322.024 88.894q-6.64 0-11.83-3.26-5.2-3.27-8.22-8.91-3.02-5.65-3.02-12.87 0-7.23 3.02-12.87 3.02-5.65 8.22-8.91 5.19-3.27 11.83-3.27 4.85 0 8.76 1.88t6.38 5.2q2.48 3.31 2.77 7.57v20.79q-.29 4.26-2.72 7.57-2.42 3.32-6.38 5.2-3.96 1.88-8.81 1.88m3.06-13.66q4.86 0 7.83-3.22 2.97-3.21 2.97-8.16 0-3.37-1.34-5.94-1.34-2.58-3.76-4.01-2.43-1.44-5.6-1.44-3.16 0-5.59 1.44-2.43 1.43-3.86 4.01-1.44 2.57-1.44 5.94 0 3.26 1.39 5.84 1.39 2.57 3.86 4.06 2.48 1.48 5.54 1.48m10.2 12.67v-12.97l2.28-11.68-2.28-11.68v-11.78h14.85v48.11Z"></path><rect width="51.18" height="50.09" x="-25.59" y="-25.05" fill="none" rx="0" ry="0" transform="translate(325.04 64.35)"></rect><path fill="#818181" d="M367.654 87.904v-68.01h15.15v68.01Zm-10.89-35.24v-12.87h36.93v12.87Z"></path><rect width="36.93" height="68.01" x="-18.46" y="-34.01" fill="none" rx="0" ry="0" transform="translate(375.73 54.4)"></rect><path fill="#818181" d="M422.504 88.994q-7.42 0-13.41-3.32-5.99-3.31-9.46-9.05-3.46-5.75-3.46-12.87 0-7.13 3.46-12.77 3.47-5.65 9.41-8.96 5.94-3.32 13.46-3.32 7.52 0 13.46 3.27 5.94 3.26 9.41 8.96 3.46 5.69 3.46 12.82 0 7.12-3.46 12.87-3.47 5.74-9.41 9.05-5.94 3.32-13.46 3.32m0-13.76q3.27 0 5.74-1.44 2.48-1.43 3.81-4.05 1.34-2.63 1.34-5.99 0-3.37-1.39-5.89-1.38-2.53-3.81-3.96-2.42-1.44-5.69-1.44-3.17 0-5.64 1.44-2.48 1.43-3.86 4.01-1.39 2.57-1.39 5.94 0 3.26 1.39 5.89 1.38 2.62 3.86 4.05 2.47 1.44 5.64 1.44"></path><rect width="52.66" height="50.29" x="-26.33" y="-25.14" fill="none" rx="0" ry="0" transform="translate(423 64.35)"></rect><path fill="#818181" d="M464.674 88.994q-3.86 0-6.43-2.67t-2.57-6.44q0-3.96 2.57-6.58t6.43-2.62q3.96 0 6.49 2.62 2.52 2.62 2.52 6.58 0 3.77-2.52 6.44-2.53 2.67-6.49 2.67"></path><rect width="18.01" height="18.31" x="-9.01" y="-9.15" fill="none" rx="0" ry="0" transform="translate(465.18 80.34)"></rect><path fill="#818181" d="M94.308 30.775c-7.134-10.033-22.295-8.026-22.295-8.026 5.574 7.803 2.007 13.154 2.007 13.154-4.682.447-11.148-4.46-11.148-4.46 1.115 5.575-4.236 9.588-4.236 9.588 0-3.345-7.804-8.026-7.804-8.026-1.784 4.905-11.817 7.135-11.817 7.135-.893-5.575.669-8.696.669-8.696-3.79 3.345-12.04 2.677-12.04 2.677.892-8.696 5.797-11.595 5.797-11.595-45.038-2.23-37.68 75.807 20.957 71.347 58.639-4.459 47.045-53.064 39.91-63.098"></path><path fill="#818181" d="M34.333 28.769c5.128 1.413 10.405-2.824 10.405-2.824-2.379 2.824-1.263 7.654-1.263 7.654 4.087-.223 5.945-5.797 5.945-5.797 4.088.075 8.845 6.614 8.845 6.614 3.27-3.047 2.452-7.209 2.452-7.209 4.906 3.79 10.182 2.825 10.182 2.825-.222-4.609-4.978-7.06-4.978-7.06 5.797-4.013 3.79-7.283 3.79-7.283-2.972 4.607-9.29 4.979-9.29 4.979 3.194-3.345 1.188-10.182 1.188-10.182-1.19 2.75-6.242 10.701-6.316 7.803a3.935 3.935 0 0 1 .018-.458c.315-3.574 4.44-15.074 4.44-15.074-.594-1.933-2.972-2.23-4.235-1.562-1.264.668-4.09 16.798-4.09 16.798-3.865-1.04-3.641-8.697-3.641-8.697-3.12 1.784-3.047 10.108-3.047 10.108-7.209-.223-9.81-5.352-9.81-5.352-.223 7.804 6.465 8.696 6.465 8.696-4.31.15-7.06 6.021-7.06 6.021"></path></svg></svg>